<svg xmlns="http://www.w3.org/2000/svg" viewBox="0 0 100 100" role="img" aria-labelledby="title">
  <title id="title">Gitty cat icon</title>
  <g fill="#24292f">
    <path d="M87.8,36.9C87.8,36.9,87.8,36.8,87.8,36.9c-3.6-7.2-9.1-13-15.7-16.9c-2.3-5.7-4.6-12.8-4.6-12.9L67,5.5l-1.6,0.6  c-4.9,1.8-7.4,5.3-8.5,8.7c-3.3-0.4-6.6,0.2-9.6,1.6c-3.2,1.6-5.7,4-7.3,7.1c-2.3,1.2-3.9,3.2-4.7,5.6c-0.8,2.5-0.6,5.2,0.6,7.6  c1.2,2.4,3.3,4.2,5.8,5c2.5,3.2,6,5.3,9.9,6.1c-2.6,1.7-4.5,4.3-5.3,7.2c-0.4,1.3-0.7,3.7,1,5.4c-2.1,0.1-4.2,0.6-6.3,1.6  c0.1-0.2,0.1-0.3,0.2-0.5c0.2-0.6,0.7-1.1,1.2-1.7c1.2-1.5,3.3-4.1,0.2-7.5c-0.8-0.9-1.8-1.3-3-1.1C34.2,52.1,27.9,65,27.9,65.1  c-1.4,2.9-2.1,5.3-2.4,7c-1.7-3.1-3.3-7.3-4.2-13C19,45,28.6,34.4,28.7,34.4c1.3-1.3,3.2-4.5,0.7-7.5c-0.8-0.9-1.8-1.4-2.9-1.4  c-2.2,0-4,1.8-4.2,2c-11.4,12.2-14,30.5-6.5,45.4c3.1,6.1,7.7,11.4,13.3,15.2c6.8,4.6,14.7,7,22.7,7c6.2,0,12.3-1.4,18-4.3  C89.6,80.9,97.7,56.7,87.8,36.9z M87.6,45.7C87.5,45.7,87.5,45.7,87.6,45.7c-5.2,1.1-10.7,1.2-11.7,0.2c0.5-1.2,4.8-4,9.6-6.2  C86.4,41.7,87.1,43.7,87.6,45.7z M75.4,83.2c-0.1-0.1-0.2-0.2-0.3-0.3c-0.6-0.5-1.9-1.8-2-2.8c0-0.2,0-0.6,0.4-1  c0.3-0.3,0.7-0.5,1.2-0.5c1.2,0,2.7,0.7,3.9,1.4C77.7,81.2,76.6,82.2,75.4,83.2z M86.4,67.6c-7.4-2.2-13.2-5.4-13.2-6.7  c0.8-1.8,8.6-2,15.2-1.1C88,62.5,87.3,65.1,86.4,67.6z M70.2,59.6c-0.4,0.9-0.4,1.9,0,2.9c1.8,4,11.8,7.3,14.9,8.3  c-1.1,2.4-2.5,4.7-4.2,6.8c-2.2-1.4-6.8-3.7-9.7-0.7c-1,1-1.4,2.3-1.3,3.6c0.2,2.3,2,4.1,2.9,4.8c-1.4,1-2.9,1.9-4.5,2.6  c-12,6-26.3,5-37.4-2.5c-5.2-3.5-9.4-8.4-12.2-14c-6.9-13.7-4.5-30.5,6-41.7c0.4-0.4,1.2-1,1.7-1c0.1,0,0.2,0,0.4,0.3  c1.1,1.3-0.2,2.7-0.5,3c-0.4,0.5-10.9,11.9-8.3,27.6C21,78.9,31.5,82.8,32.8,83.3c9.1,3.8,17.5-0.6,17.8-0.8l-1.6-2.9  c-0.1,0-7.4,3.9-15.1,0.6l-0.2-0.1c-0.2-0.1-2.8-0.9-5.6-4.1c0.2-0.3,0.3-0.7,0.3-1c0,0-0.2-3.1,2.4-8.4c2.9-6.2,7.5-11.9,9-11.9  h0.1c1.2,1.4,1,1.7-0.3,3.2c-0.6,0.7-1.3,1.5-1.7,2.6c-1.1,2.6-2.5,5.1-3.5,6.9c-0.9,1.4-1.5,2.4-1.5,2.4c0,0.1-0.1,0.1-0.1,0.2  c0,0.1-0.1,0.1-0.1,0.2c0,0,0,0.1,0,0.1c0,0.1,0,0.1,0,0.2c0,0.1,0,0.2,0,0.2c0,0.1,0,0.2,0,0.3c0,0.1,0.1,0.3,0.1,0.4  c0.1,0.3,0.3,0.5,0.6,0.7c0.1,0,0.1,0.1,0.2,0.1c0.1,0,0.1,0.1,0.2,0.1c0.1,0,0.1,0,0.2,0.1c0.2,0.1,0.4,0.1,0.7,0  c0.1,0,0.3-0.1,0.4-0.1c0.1,0,0.1-0.1,0.2-0.1c0.1,0,0.1-0.1,0.2-0.1c0.1,0,0.1-0.1,0.2-0.2c0-0.1,0.1-0.1,0.1-0.2  c0.1-0.1,0.7-1,1.5-2.4c1.2-1.6,2.8-2.9,4.7-3.8c4.1-2,8.7-1.9,12.5,0.1c0,0,0,0,0,0c2.5,1.3,4.6,3.4,6,6.1c1.2,2.5,1.7,5.2,1.3,7.9  c-0.1,0.9,0.5,1.7,1.4,1.9c0.1,0,0.1,0,0.2,0c0.8,0,1.5-0.6,1.6-1.4c0.4-3.4-0.1-6.8-1.7-9.9c-1.5-2.9-3.6-5.2-6.2-6.8  c0.4-2.5-0.4-5-0.5-5.4c0-0.1,0-0.1-0.1-0.2c0.2-0.2,0.5-0.5,0.8-0.7c0.6-0.4,1.4-0.8,2.1-0.8c0.8,0,1.5,0.4,2.2,1.3  c0.6,0.7,1.6,0.8,2.3,0.2c0.7-0.6,0.8-1.6,0.2-2.3c-1.7-2-3.5-2.5-4.8-2.5c0,0,0,0,0,0c-3.4,0-5.9,3-6.2,3.4  c-0.1,0.1-0.2,0.2-0.2,0.3c-0.1,0.1-1.3,2.7-3.2,1.9c-1.1-0.5-0.7-1.9-0.6-2.3c0.8-2.7,2.6-4.9,5.2-6.2c4.6-2.3,10.2-0.8,13,3.5  c0.5,0.8,1.5,1,2.3,0.5c0.8-0.5,1-1.5,0.5-2.3c-2.2-3.4-5.7-5.5-9.4-6c0-0.1,0-0.2-0.1-0.2c-0.3-0.9-1.2-1.4-2.1-1.1  c-5.5,1.6-11.4-0.4-14.7-5L43.5,39L43,38.8c-1.8-0.5-3.4-1.7-4.2-3.4c-0.8-1.6-0.9-3.4-0.4-5.1c0.1-0.2,0.2-0.5,0.3-0.7  c0.2-0.1,0.3-0.2,0.4-0.3c0.2-0.2,0.7-0.6,1.2-0.8l1.5,0l1,0h0c0.7,0,1.3-0.4,1.5-1.1c0.3-0.7,0.1-1.4-0.5-1.9L43,24.9  c1.3-2.4,3.3-4.3,5.7-5.5c2.1-1,4.4-1.5,6.7-1.4v0c0.3,0,0.5,0.1,0.8,0.1c-0.1,1.2-0.1,2.2,0.1,3.1c0.1,0.9,1,1.5,1.9,1.4  c0.7-0.1,1.3-0.7,1.4-1.4c0-0.2,0-0.3,0-0.5c0-0.1-0.1-0.9-0.1-2.1c0-0.9,0.2-2.1,0.6-3.2c0.7-2,2-4.1,4.7-5.5  c0.6,1.8,1.6,4.8,2.8,7.9c0.6,1.5,1.2,3.1,1.8,4.6c0.1,0.2,0.2,0.4,0.2,0.6c0.2,0.3,0.3,0.7,0.4,1c0.3,0.6,0.9,1,1.5,1  c0.2,0,0.5,0,0.7-0.1c0.2-0.1,0.4-0.2,0.5-0.3c4.6,3.1,8.4,7.3,11.2,12.3c-3.7,1.7-10.3,5.1-11.3,8.2c-0.3,0.9-0.2,1.8,0.3,2.5  c1.1,1.9,4,2.4,7,2.4c3.3,0,6.7-0.7,8.3-1c0,0,0,0,0,0c0.4,2.6,0.6,5.1,0.4,7.7C84.1,56,72.4,54.9,70.2,59.6z"/>
    <path d="M54.4,29.1c-0.2,0.1-0.4,0.1-0.5,0.1c-0.7,0-1.3-0.4-1.6-1.1c-0.5-1.4-1.4-1.4-2.1-1.2c-0.9,0.2-1.8-0.3-2.1-1.1  c-0.3-0.9,0.2-1.8,1.1-2c1.8-0.6,5-0.2,6.2,3.3C55.7,27.9,55.2,28.8,54.4,29.1z"/>
    <path d="M55.6,41.8c-0.2,0.3-0.6,0.5-0.9,0.5c-0.2,0-0.4-0.1-0.6-0.2l-7.2-4.8c-0.5-0.3-0.6-1-0.3-1.5c0.3-0.5,1-0.6,1.5-0.3  l7.2,4.8C55.8,40.6,55.9,41.3,55.6,41.8z"/>
    <path d="M59.1,36.7c-0.2,0.5-0.6,0.8-1.1,0.8c-0.1,0-0.2,0-0.3-0.1l-10.6-3.5c-0.6-0.2-0.9-0.8-0.7-1.4c0.2-0.6,0.8-0.9,1.4-0.7  l10.6,3.5C59,35.5,59.3,36.1,59.1,36.7z"/>
  </g>
</svg>
